<svg width="25" height="16" viewBox="0 0 25 16" fill="none" xmlns="http://www.w3.org/2000/svg">
<path d="M3.34678 15.3387C2.68678 15.3387 2.12178 15.1037 1.65178 14.6337C1.18178 14.1637 0.946777 13.5987 0.946777 12.9387V3.33872C0.946777 2.67872 1.18178 2.11372 1.65178 1.64372C2.12178 1.17372 2.68678 0.938721 3.34678 0.938721H22.5468C23.2068 0.938721 23.7718 1.17372 24.2418 1.64372C24.7118 2.11372 24.9468 2.67872 24.9468 3.33872V12.9387C24.9468 13.5987 24.7118 14.1637 24.2418 14.6337C23.7718 15.1037 23.2068 15.3387 22.5468 15.3387H3.34678ZM3.34678 12.9387H22.5468V3.33872H18.9468V8.13872H16.5468V3.33872H14.1468V8.13872H11.7468V3.33872H9.34678V8.13872H6.94678V3.33872H3.34678V12.9387Z" fill="#FF7899"/>
</svg>
